<svg xmlns="http://www.w3.org/2000/svg" width="1em" height="1em" viewBox="0 0 24 24"><path fill="currentColor" d="M10.865 16.558q.839 0 1.43-.59q.59-.591.59-1.43V9h1.846q.31 0 .54-.22q.229-.22.229-.55q0-.309-.23-.539t-.54-.23h-1.845q-.31 0-.54.23t-.23.54v4.73q-.248-.205-.565-.324t-.685-.118q-.838 0-1.428.59q-.59.591-.59 1.43q0 .838.59 1.428t1.428.59M4.615 19q-.69 0-1.152-.462T3 17.385V6.615q0-.69.463-1.152T4.615 5h14.77q.69 0 1.152.463T21 6.615v10.77q0 .69-.462 1.152T19.385 19zm0-1h14.77q.23 0 .423-.192t.192-.423V6.615q0-.23-.192-.423T19.385 6H4.615q-.23 0-.423.192T4 6.615v10.77q0 .23.192.423t.423.192M4 18V6z"/></svg>