<svg width="77" height="66" viewBox="0 0 77 66" fill="none" xmlns="http://www.w3.org/2000/svg">
<path fill-rule="evenodd" clip-rule="evenodd" d="M3.62455 3.62455C5.94532 1.30379 9.09295 0 12.375 0H64.625C67.9071 0 71.0547 1.30379 73.3754 3.62455C75.6962 5.94532 77 9.09295 77 12.375V53.625C77 56.9071 75.6962 60.0547 73.3754 62.3754C71.0547 64.6962 67.9071 66 64.625 66H12.375C9.09295 66 5.94532 64.6962 3.62455 62.3754C1.30379 60.0547 0 56.9071 0 53.625V12.375C0 9.09295 1.30379 5.94532 3.62455 3.62455ZM39.0006 35.8232V22.9997C39.0006 21.3498 40.3505 20 42.0004 20H45.0002C46.6501 20 48 21.3498 48 22.9997C48 24.6495 46.6501 25.9993 45.0002 25.9993H42.0004V40.7726C42.0004 43.7573 39.9155 46.457 36.9757 46.9219C36.0287 47.0761 35.0587 47.0013 34.1466 46.7038C33.2344 46.4063 32.4068 45.8948 31.7328 45.2121C31.0588 44.5293 30.5581 43.6952 30.2725 42.7793C29.9869 41.8635 29.9247 40.8925 30.0911 39.9477C30.4511 37.848 31.996 36.0632 34.0059 35.3433C35.8507 34.6983 37.5906 35.0133 39.0006 35.8232Z" fill="currentColor"/>
</svg>
