<svg width="77" height="66" viewBox="0 0 77 66" fill="none" xmlns="http://www.w3.org/2000/svg">
<path fill-rule="evenodd" clip-rule="evenodd" d="M3.62455 3.62455C5.94532 1.30379 9.09295 0 12.375 0H64.625C67.9071 0 71.0547 1.30379 73.3754 3.62455C75.6962 5.94532 77 9.09295 77 12.375V53.625C77 56.9071 75.6962 60.0547 73.3754 62.3754C71.0547 64.6962 67.9071 66 64.625 66H12.375C9.09295 66 5.94532 64.6962 3.62455 62.3754C1.30379 60.0547 0 56.9071 0 53.625V12.375C0 9.09295 1.30379 5.94532 3.62455 3.62455ZM50.625 23.1875C50.625 19.7779 53.4029 17 56.8125 17C60.2221 17 63 19.7779 63 23.1875C63 26.5971 60.2221 29.375 56.8125 29.375C53.4029 29.375 50.625 26.5971 50.625 23.1875ZM54.75 23.1875C54.75 24.3283 55.6717 25.25 56.8125 25.25C57.9533 25.25 58.875 24.3283 58.875 23.1875C58.875 22.0467 57.9533 21.125 56.8125 21.125C55.6717 21.125 54.75 22.0467 54.75 23.1875ZM39.2812 17C43.2709 17 46.5 20.2291 46.5 24.2188V34.9502C47.7697 36.5357 48.5625 38.5273 48.5625 40.7188C48.5625 45.8428 44.4053 50 39.2812 50C34.1572 50 30 45.8428 30 40.7188C30 38.5273 30.7928 36.5422 32.0625 34.9502V24.2188C32.0625 20.2291 35.2916 17 39.2812 17ZM34.125 40.7188C34.125 43.5611 36.4389 45.875 39.2812 45.875C42.1236 45.875 44.4375 43.5611 44.4375 40.7188C44.4375 39.0752 43.6512 37.5605 42.375 36.6066V24.2188C42.375 22.5107 40.9893 21.125 39.2812 21.125C37.5732 21.125 36.1875 22.5107 36.1875 24.2188V36.6066C34.9113 37.567 34.125 39.0752 34.125 40.7188ZM40.3125 24.2188V37.8119C41.5113 38.2373 42.375 39.3717 42.375 40.7188C42.375 42.4268 40.9893 43.8125 39.2812 43.8125C37.5732 43.8125 36.1875 42.4268 36.1875 40.7188C36.1875 39.3717 37.0512 38.2373 38.25 37.8119V24.2188C38.25 23.6516 38.7141 23.1875 39.2812 23.1875C39.8484 23.1875 40.3125 23.6516 40.3125 24.2188Z" fill="currentColor"/>
</svg>
