<svg version="1.2" xmlns="http://www.w3.org/2000/svg" viewBox="0 0 716 426" width="716" height="426">
	<title>CNBC-Logo</title>
	<style>
		.s0 { fill: #ffffff } 
		.s1 { fill: #f37021 } 
		.s2 { fill: #cc004c } 
		.s3 { fill: #6460aa } 
		.s4 { fill: #0089d0 } 
		.s5 { fill: #0db14b } 
		.s6 { fill: #fcb711 } 
	</style>
	<path id="Layer" class="s0" d="m359.4 58.5c-10.9-27.3-37.6-56.8-87.4-52.7-63.5 6.9-83.3 67.7-73.7 104-25.3-17.1-68.3-24.6-105.8 7.5-48.5 48.6-22.6 114.3 4.1 130.1-29.4-2.8-75.8 17.1-86.1 69-10.9 64.4 38.2 102 86.1 102h530.4c55.3 0 86-47.9 82.5-93-5.4-58.9-59.3-81.5-88.7-76.6 24.6-13.7 57.4-78.1 7.5-128.7-39.6-37.7-90.1-24-107.8-7.6 9.6-31.4-6.1-96.5-70.3-106.7q-6.7-0.8-12.8-0.8c-49.1 0-71.1 35.8-78 53.5z"/>
	<path id="Layer" class="s1" d="m101.3 127.6c-28 25.3-38.2 82.8 12.3 116.3l201.4 138.2-97.7-223.7c-20.4-52.8-76.4-64.3-116-30.8z"/>
	<path id="Layer" class="s2" d="m274.7 18.8c-32.8 0.7-81.9 39.7-60.1 99.2l101 238.2 35.5-250.6c8.2-62.2-38.9-90.9-76.4-86.8z"/>
	<path id="Layer" class="s3" d="m366.9 96.1h19.1c0 0 10.2 0 11.6 4.8-7.5 6.1-28 6.9-25.3 39.7l32.1 215.5 100.3-238.8c20.5-53.3-22.5-97.8-60.7-99.2-1.8-0.1-3.6-0.2-5.4-0.2-34.3 0-73.6 24.9-71.7 78.2z"/>
	<path id="Layer" class="s4" d="m500.7 160.4l-94.9 221.1 201.4-138.9c46.4-33 38.9-85.6 12.9-111.6-10.9-12.2-30.9-21.7-52.1-21.7-25 0-51.8 13.3-67.3 51.1z"/>
	<path id="Layer" class="s5" d="m584.6 274l-189.1 132.1h232.8c47.8 0 78.5-49.3 64.9-94.5-9.2-28.4-36.2-50.7-67.6-50.7-13.2 0-27.2 4-41 13.1z"/>
	<path id="Layer" class="s6" d="m95.9 406.1h229.4l-189.2-132.1c-43.7-28.1-92.8-11.6-110.5 35-15.1 53.3 22.5 97.1 70.3 97.1z"/>
</svg>