<svg width="66" height="66" viewBox="0 0 66 66" fill="none" xmlns="http://www.w3.org/2000/svg">
<path fill-rule="evenodd" clip-rule="evenodd" d="M1.716 19.2159C0 22.341 0 26.1195 0 33.6699V38.6925C0 51.5625 -3.93391e-07 58.0008 3.8676 62.0004C7.7319 66 13.9557 66 26.4 66H39.6C52.0443 66 58.2681 66 62.1324 62.0004C66 58.0008 66 51.5658 66 38.6925V33.6732C66 26.1195 66 22.3443 64.284 19.2159C62.5746 16.0842 59.4429 14.1438 53.1828 10.2564L46.5828 6.1611C39.9663 2.0526 36.6564 0 33 0C29.3436 0 26.037 2.0526 19.4172 6.1611L12.8172 10.2564C6.5571 14.1438 3.4287 16.0842 1.716 19.2159ZM30.525 52.8C30.525 53.4564 30.7858 54.0859 31.2499 54.5501C31.7141 55.0142 32.3436 55.275 33 55.275C33.6564 55.275 34.2859 55.0142 34.7501 54.5501C35.2142 54.0859 35.475 53.4564 35.475 52.8V42.9C35.475 42.2436 35.2142 41.6141 34.7501 41.1499C34.2859 40.6858 33.6564 40.425 33 40.425C32.3436 40.425 31.7141 40.6858 31.2499 41.1499C30.7858 41.6141 30.525 42.2436 30.525 42.9V52.8Z" fill="currentColor"/>
</svg>
