<svg version="1.2" xmlns="http://www.w3.org/2000/svg" viewBox="0 0 224 76" width="224" height="76">
	<title>hulu-Green-digital-svg</title>
	<style>
		.s0 { fill: #1ce783 } 
	</style>
	<g id="XMLID_2489_">
		<path id="XMLID_2490_" class="s0" d="m137.3 74.3h17.2v-71.2h-17.2zm-30.2-20.3c0 2.5-2.1 4.6-4.6 4.6h-10c-2.5 0-4.6-2.1-4.6-4.6 0-1 0-28.7 0-28.7h-17.2v30.1c0 12.3 7.9 18.8 19.5 18.8h16.8c10.7 0 17.2-7.7 17.2-18.8v-30.1h-17.2c0.1 0 0.1 27.8 0.1 28.7zm96.7-28.7c0 0 0 27.8 0 28.7 0 2.5-2.1 4.6-4.6 4.6h-10c-2.5 0-4.6-2.1-4.6-4.6 0-1 0-28.7 0-28.7h-17.2v30.1c0 12.3 7.9 18.8 19.5 18.8h16.8c10.7 0 17.2-7.7 17.2-18.8v-30.1zm-164.8 0c0 0-8.9 0-11 0-3.9 0-5.8 1-5.8 1v-23.2h-17.2v71.1h17.1v-28.6c0-2.5 2.1-4.6 4.6-4.6h10c2.5 0 4.6 2.1 4.6 4.6v28.7h17.2v-31c0-13-8.7-18-19.5-18z"/>
	</g>
</svg>