<svg width="77" height="66" viewBox="0 0 77 66" fill="none" xmlns="http://www.w3.org/2000/svg">
<path d="M9.55704 8.0245C10.206 5.71475 11.5924 3.6805 13.5048 2.23179C15.4172 0.783071 17.7508 -0.000671377 20.15 4.31536e-07H56.835C61.763 4.31536e-07 66.0915 3.278 67.428 8.0245L76.558 40.4635C77.0364 42.1649 77.1141 43.954 76.7849 45.6905C76.4558 47.427 75.7288 49.0636 74.6609 50.4719C73.5931 51.8803 72.2135 53.022 70.6303 53.8076C69.0471 54.5933 67.3034 55.0014 65.536 55H11.449C9.68165 55.0014 7.93797 54.5933 6.35478 53.8076C4.7716 53.022 3.39197 51.8803 2.32413 50.4719C1.2563 49.0636 0.529286 47.427 0.200138 45.6905C-0.12901 43.954 -0.051345 42.1649 0.427041 40.4635L9.55704 8.0245ZM19.226 60.5C18.4967 60.5 17.7972 60.7897 17.2815 61.3055C16.7658 61.8212 16.476 62.5207 16.476 63.25C16.476 63.9793 16.7658 64.6788 17.2815 65.1945C17.7972 65.7103 18.4967 66 19.226 66H57.7535C58.4829 66 59.1824 65.7103 59.6981 65.1945C60.2138 64.6788 60.5035 63.9793 60.5035 63.25C60.5035 62.5207 60.2138 61.8212 59.6981 61.3055C59.1824 60.7897 58.4829 60.5 57.7535 60.5H19.226Z" fill="currentColor"/>
</svg>
