<svg width="77" height="66" viewBox="0 0 77 66" fill="none" xmlns="http://www.w3.org/2000/svg">
<path fill-rule="evenodd" clip-rule="evenodd" d="M12.375 0C9.09295 0 5.94532 1.30379 3.62455 3.62455C1.30379 5.94532 0 9.09295 0 12.375V53.625C0 56.9071 1.30379 60.0547 3.62455 62.3754C5.94532 64.6962 9.09295 66 12.375 66H64.625C67.9071 66 71.0547 64.6962 73.3754 62.3754C75.6962 60.0547 77 56.9071 77 53.625V12.375C77 9.09295 75.6962 5.94532 73.3754 3.62455C71.0547 1.30379 67.9071 0 64.625 0H12.375ZM38.563 16C35.7991 15.9994 33.1121 16.9105 30.9185 18.592C28.725 20.2736 27.1474 22.6318 26.4302 25.3011C25.713 27.9703 25.8963 30.8016 26.9517 33.3561C28.0071 35.9107 29.8756 38.0457 32.2677 39.4304C33.3121 40.0363 33.9652 40.965 33.9941 41.9013C34.0021 42.1521 34.0925 42.3933 34.2513 42.5876C34.4101 42.7819 34.6284 42.9184 34.8726 42.9762C35.4085 43.1025 35.9535 43.2015 36.5077 43.2731C36.9994 43.3355 37.4212 42.9412 37.4212 42.4449V35.3487C36.9401 35.2958 36.4634 35.2088 35.9946 35.0884C35.8494 35.051 35.7129 34.9854 35.593 34.8953C35.4731 34.8051 35.3722 34.6923 35.2959 34.5631C35.2196 34.434 35.1696 34.2911 35.1485 34.1426C35.1275 33.9941 35.1359 33.8429 35.1733 33.6976C35.2107 33.5524 35.2763 33.4159 35.3664 33.2961C35.4565 33.1762 35.5694 33.0752 35.6985 32.9989C35.8277 32.9227 35.9706 32.8726 36.1191 32.8515C36.2676 32.8305 36.4188 32.8389 36.564 32.8763C37.8752 33.2142 39.2507 33.2142 40.562 32.8763C40.7087 32.834 40.8624 32.8216 41.014 32.8398C41.1656 32.8579 41.312 32.9063 41.4445 32.9821C41.5771 33.0578 41.6931 33.1594 41.7858 33.2807C41.8784 33.4021 41.9458 33.5408 41.9838 33.6887C42.0219 33.8365 42.03 33.9905 42.0075 34.1415C41.985 34.2926 41.9325 34.4375 41.853 34.5679C41.7735 34.6983 41.6687 34.8114 41.5448 34.9005C41.4208 34.9896 41.2802 35.053 41.1314 35.0869C40.6626 35.2078 40.1859 35.2953 39.7048 35.3487V42.4433C39.703 42.5601 39.7261 42.6758 39.7725 42.783C39.8189 42.8901 39.8877 42.9861 39.9741 43.0646C40.0605 43.1431 40.1626 43.2023 40.2737 43.2382C40.3848 43.2742 40.5023 43.286 40.6183 43.2731C41.1681 43.2023 41.7138 43.1032 42.2534 42.9762C42.4976 42.9184 42.7159 42.7819 42.8747 42.5876C43.0335 42.3933 43.1239 42.1521 43.1318 41.9013C43.1623 40.965 43.8139 40.0363 44.8583 39.4304C47.2504 38.0457 49.1189 35.9107 50.1743 33.3561C51.2296 30.8016 51.413 27.9703 50.6958 25.3011C49.9786 22.6318 48.401 20.2736 46.2074 18.592C44.0139 16.9105 41.3269 15.9994 38.563 16ZM34.1822 44.7415C34.0999 44.8669 34.0432 45.0073 34.0153 45.1547C33.9591 45.4521 34.0233 45.7596 34.1937 46.0096C34.3641 46.2597 34.6269 46.4319 34.9242 46.4884C37.3285 46.9446 39.7971 46.9446 42.2015 46.4884C42.3522 46.4642 42.4967 46.41 42.6261 46.329C42.7556 46.248 42.8675 46.1419 42.9553 46.0169C43.043 45.8919 43.1048 45.7506 43.1369 45.6013C43.1691 45.452 43.1709 45.2977 43.1424 45.1477C43.1139 44.9977 43.0556 44.8549 42.9709 44.7278C42.8862 44.6007 42.7769 44.4919 42.6494 44.4078C42.5219 44.3237 42.3789 44.266 42.2287 44.2382C42.0785 44.2104 41.9243 44.213 41.7752 44.2458C39.6525 44.6486 37.4731 44.6486 35.3505 44.2458C35.2031 44.2178 35.0517 44.2191 34.9048 44.2496C34.758 44.2801 34.6185 44.3392 34.4946 44.4236C34.3706 44.508 34.2644 44.616 34.1822 44.7415ZM35.2753 48.4499C35.2038 48.5818 35.159 48.7264 35.1434 48.8756C35.1278 49.0247 35.1417 49.1755 35.1844 49.3192C35.227 49.463 35.2976 49.597 35.392 49.7135C35.4865 49.83 35.603 49.9267 35.7348 49.9982C35.8666 50.0697 36.0112 50.1145 36.1604 50.1301C37.7576 50.2973 39.368 50.2973 40.9652 50.1301C41.1144 50.1145 41.259 50.0696 41.3908 49.9982C41.5226 49.9267 41.6391 49.8299 41.7335 49.7134C41.828 49.5969 41.8985 49.463 41.9412 49.3192C41.9839 49.1755 41.9978 49.0247 41.9822 48.8756C41.9666 48.7264 41.9218 48.5818 41.8503 48.45C41.7788 48.3181 41.6821 48.2017 41.5656 48.1072C41.4491 48.0128 41.3152 47.9422 41.1714 47.8996C41.0276 47.8569 40.8769 47.843 40.7277 47.8586C39.2884 48.009 37.8373 48.009 36.3979 47.8586C36.2487 47.843 36.098 47.8569 35.9542 47.8995C35.8104 47.9422 35.6765 48.0128 35.56 48.1072C35.4435 48.2017 35.3468 48.3181 35.2753 48.4499Z" fill="currentColor"/>
</svg>
