<svg width="39" height="40" viewBox="0 0 39 40" fill="none" xmlns="http://www.w3.org/2000/svg">
<path d="M21.9355 2.58065C21.9355 1.15323 20.7823 0 19.3548 0C17.9274 0 16.7742 1.15323 16.7742 2.58065V20.6452C16.7742 22.0726 17.9274 23.2258 19.3548 23.2258C20.7823 23.2258 21.9355 22.0726 21.9355 20.6452V2.58065ZM10.2823 9.72581C11.379 8.81452 11.5242 7.18548 10.6129 6.08871C9.70161 4.99194 8.07258 4.84677 6.97581 5.75806C2.71774 9.30645 0 14.6613 0 20.6452C0 31.3306 8.66936 40 19.3548 40C30.0403 40 38.7097 31.3306 38.7097 20.6452C38.7097 14.6613 35.9839 9.30645 31.7258 5.75806C30.629 4.84677 29 5 28.0887 6.08871C27.1774 7.17742 27.3306 8.81452 28.4194 9.72581C31.5565 12.3306 33.5403 16.2581 33.5403 20.6452C33.5403 28.4839 27.1855 34.8387 19.3468 34.8387C11.5081 34.8387 5.15323 28.4839 5.15323 20.6452C5.15323 16.2581 7.14516 12.3306 10.2742 9.72581H10.2823Z" fill="currentColor"/>
</svg>
