<svg width="74" height="67" viewBox="0 0 74 67" fill="none" xmlns="http://www.w3.org/2000/svg">
<path d="M7.33334 59.1666V7.83333C7.33334 5.81666 8.05201 4.09089 9.48934 2.656C10.9267 1.22111 12.6524 0.502444 14.6667 0.5H58.6666C60.6833 0.5 62.4103 1.21867 63.8476 2.656C65.285 4.09333 66.0024 5.81911 66 7.83333V59.1666H69.6666C70.7055 59.1666 71.577 59.5186 72.281 60.2226C72.985 60.9266 73.3357 61.7968 73.3333 62.8333C73.3308 63.8697 72.9788 64.7412 72.2773 65.4476C71.5757 66.1541 70.7055 66.5048 69.6666 66.4999H3.66668C2.62779 66.4999 1.75757 66.1479 1.05601 65.4439C0.354457 64.74 0.00245709 63.8697 1.26437e-05 62.8333C-0.0024318 61.7968 0.349568 60.9266 1.05601 60.2226C1.76246 59.5186 2.63268 59.1666 3.66668 59.1666H7.33334ZM22.825 33.5C26.9805 36.25 30.1889 40.0083 32.45 44.775C34.7111 49.5416 36.0555 54.3388 36.4833 59.1666H36.85C37.2778 54.3388 38.6222 49.5416 40.8833 44.775C43.1444 40.0083 46.3528 36.25 50.5083 33.5C46.3528 30.75 43.1444 26.9916 40.8833 22.225C38.6222 17.4583 37.2778 12.6611 36.85 7.83333H36.4833C36.0555 12.6611 34.7111 17.4583 32.45 22.225C30.1889 26.9916 26.9805 30.75 22.825 33.5Z" fill="currentColor"/>
</svg>
