<svg width="39" height="66" viewBox="0 0 39 66" fill="none" xmlns="http://www.w3.org/2000/svg">
<path fill-rule="evenodd" clip-rule="evenodd" d="M7.6746 11.5119C7.6746 8.45875 8.88745 5.53065 11.0464 3.37176C13.2053 1.21286 16.1333 0 19.1865 0C22.2396 0 25.1677 1.21286 27.3266 3.37176C29.4855 5.53065 30.6984 8.45875 30.6984 11.5119V30.9992C30.6984 31.2203 30.8212 31.5518 31.1834 31.8404C34.2851 34.3255 36.5385 37.7126 37.6322 41.5337C38.7259 45.3548 38.606 49.4212 37.289 53.1712C35.972 56.9211 33.523 60.1695 30.2802 62.4676C27.0374 64.7657 23.161 66 19.1865 66C15.212 66 11.3356 64.7657 8.09279 62.4676C4.85002 60.1695 2.40095 56.9211 1.08396 53.1712C-0.233039 49.4212 -0.352961 45.3548 0.740758 41.5337C1.83448 37.7126 4.08785 34.3255 7.18956 31.8404C7.5518 31.5487 7.6746 31.2203 7.6746 30.9992V11.5119ZM19.1865 4.60476C17.3546 4.60476 15.5977 5.33247 14.3024 6.62781C13.0071 7.92315 12.2794 9.68001 12.2794 11.5119V30.9992C12.2794 32.8503 11.3277 34.4252 10.0691 35.4321C7.71132 37.3206 5.99829 39.8947 5.16667 42.7988C4.33505 45.7029 4.42589 48.7936 5.42665 51.6438C6.42741 54.4941 8.28868 56.9631 10.7533 58.7099C13.2179 60.4566 16.1641 61.3948 19.185 61.3948C22.2058 61.3948 25.152 60.4566 27.6166 58.7099C30.0812 56.9631 31.9425 54.4941 32.9433 51.6438C33.944 48.7936 34.0349 45.7029 33.2032 42.7988C32.3716 39.8947 30.6586 37.3206 28.3008 35.4321C27.0453 34.4252 26.0936 32.8534 26.0936 30.9992V11.5119C26.0936 9.68001 25.3659 7.92315 24.0706 6.62781C22.7752 5.33247 21.0184 4.60476 19.1865 4.60476ZM19.1865 9.20952C19.7971 9.20952 20.3827 9.45209 20.8145 9.88387C21.2463 10.3156 21.4889 10.9013 21.4889 11.5119V37.1051C23.8691 37.6695 25.9591 39.0883 27.362 41.0922C28.765 43.0961 29.3831 45.5454 29.099 47.975C28.8149 50.4046 27.6484 52.6453 25.821 54.2715C23.9936 55.8976 21.6327 56.796 19.1865 56.796C16.7403 56.796 14.3793 55.8976 12.552 54.2715C10.7246 52.6453 9.55806 50.4046 9.27398 47.975C8.98989 45.5454 9.60802 43.0961 11.011 41.0922C12.4139 39.0883 14.5039 37.6695 16.8841 37.1051V11.5119C16.8841 10.9013 17.1267 10.3156 17.5585 9.88387C17.9902 9.45209 18.5759 9.20952 19.1865 9.20952ZM19.1865 41.4428C17.7617 41.4428 16.3952 42.0088 15.3878 43.0163C14.3803 44.0238 13.8143 45.3902 13.8143 46.815C13.8143 48.2398 14.3803 49.6063 15.3878 50.6138C16.3952 51.6213 17.7617 52.1873 19.1865 52.1873C20.6113 52.1873 21.9777 51.6213 22.9852 50.6138C23.9927 49.6063 24.5587 48.2398 24.5587 46.815C24.5587 45.3902 23.9927 44.0238 22.9852 43.0163C21.9777 42.0088 20.6113 41.4428 19.1865 41.4428Z" fill="currentColor"/>
</svg>
