<svg width="77" height="66" viewBox="0 0 77 66" fill="none" xmlns="http://www.w3.org/2000/svg">
<path d="M12.375 0C9.09295 0 5.94532 1.30379 3.62455 3.62455C1.30379 5.94532 0 9.09295 0 12.375V53.625C0 56.9071 1.30379 60.0547 3.62455 62.3754C5.94532 64.6962 9.09295 66 12.375 66H64.625C67.9071 66 71.0547 64.6962 73.3754 62.3754C75.6962 60.0547 77 56.9071 77 53.625V12.375C77 9.09295 75.6962 5.94532 73.3754 3.62455C71.0547 1.30379 67.9071 0 64.625 0H12.375ZM27.5 22.0028C27.5003 21.5282 27.6234 21.0618 27.8574 20.6489C28.0914 20.236 28.4282 19.8906 28.8351 19.6465C29.2421 19.4023 29.7053 19.2676 30.1797 19.2555C30.6541 19.2434 31.1236 19.3542 31.5425 19.5773L52.162 30.5745C52.6013 30.8092 52.9686 31.1588 53.2247 31.586C53.4808 32.0132 53.6161 32.5019 53.6161 33C53.6161 33.4981 53.4808 33.9868 53.2247 34.414C52.9686 34.8412 52.6013 35.1908 52.162 35.4255L31.5452 46.4228C31.1263 46.6465 30.6565 46.7578 30.1817 46.746C29.7069 46.7342 29.2432 46.5997 28.8358 46.3554C28.4285 46.1112 28.0913 45.7656 27.8572 45.3523C27.6231 44.9391 27.5001 44.4722 27.5 43.9973V22.0028Z" fill="currentColor"/>
</svg>
