<svg width="75" height="68" viewBox="0 0 75 68" fill="none" xmlns="http://www.w3.org/2000/svg">
<path d="M37.6667 1V67C24.8333 67 15.2982 50.2067 15.2982 50.2067H4.66667C3.69421 50.2067 2.76157 49.8204 2.07394 49.1327C1.38631 48.4451 1 47.5125 1 46.54V21.185C1 20.2125 1.38631 19.2799 2.07394 18.5923C2.76157 17.9046 3.69421 17.5183 4.66667 17.5183H15.2982C15.2982 17.5183 24.8333 1 37.6667 1Z" fill="currentColor" stroke="currentColor" stroke-linejoin="round"/>
<path d="M52.3333 17.5C53.4795 18.5242 54.5143 19.6666 55.4206 20.9082C58.1916 24.7098 59.6789 29.2957 59.6666 34C59.6666 38.8657 58.1156 43.3628 55.4903 46.9983C54.5671 48.2758 53.5086 49.4499 52.3333 50.5" stroke="currentColor" stroke-linecap="round" stroke-linejoin="round"/>
<path d="M56.4333 65.5076C67.1547 59.1093 74.334 47.3925 74.334 34C74.334 20.8146 67.3747 9.2573 56.9302 2.79663" stroke="currentColor" stroke-linecap="round"/>
</svg>
