<svg width="322" height="161" viewBox="0 0 322 161" fill="none" xmlns="http://www.w3.org/2000/svg">
<path d="M0.199951 120.8C1.39995 125.6 6.49996 131.2 13.3 135.3C13.6 125.1 13.7999 108.5 13.5999 98.3999C2.39995 98.3999 11.5 98.8999 0.299957 98.8999C0.299957 107.9 0.199951 108.5 0.199951 120.8ZM13.3 135.3C20.3 139.6 29.7 143.4 40.8 146.5C40.6 133.5 41.1999 119 41.1999 107.1C28.5999 107.1 25.2999 98.3999 13.5999 98.3999C13.7999 108.5 13.6 125.1 13.3 135.3ZM40.8 146.5C55.6 150.7 73.3999 154.2 92.8999 156.7C92.6999 128.2 92.1999 126.3 92.1999 107.1C72.9999 107.1 57.9999 107.1 41.1999 107.1C41.1999 119 40.6 133.5 40.8 146.5ZM92.8999 156.7C115.7 159.7 140.8 161.2 165.8 160.8C165.8 112.6 165.6 135.5 165.6 107.1C141.9 107.1 114.8 107.1 92.1999 107.1C92.1999 126.3 92.6999 128.2 92.8999 156.7ZM165.8 160.8C193.8 160.3 221.7 158 246.1 153.8C246.1 119.1 245.1 123.9 245.1 108.8C220.4 108.8 192.2 107.1 165.6 107.1C165.6 135.5 165.8 112.6 165.8 160.8ZM246.1 153.8C260.8 151.3 274.2 148.1 285.6 144.3C285.6 115.8 285.5 116.1 285.5 107.1C272.4 107.1 259.9 108.8 245.1 108.8C245.1 123.9 246.1 119.1 246.1 153.8ZM285.6 144.3C295.6 140.9 304.1 137 310.7 132.6C310.7 104.2 310.7 126.8 310.7 98.3999C300 98.3999 296.9 107.1 285.5 107.1C285.5 116.1 285.6 115.8 285.6 144.3ZM310.7 132.6C315.1 129.7 318.6 126.4 321.1 119.9C321.1 110.2 321.1 107.4 321.1 98.3999C314 98.3999 317.8 98.3999 310.7 98.3999C310.7 126.8 310.7 104.2 310.7 132.6Z" fill="url(#paint0_linear_120_6384)"/>
<path d="M321.1 100.3C321.1 125 249.3 145.1 160.6 145.1C71.9999 145.1 0.199951 125 0.199951 100.3C0.199951 75.4999 71.9999 55.3999 160.6 55.3999C249.3 55.3999 321.1 75.4999 321.1 100.3Z" fill="url(#paint1_linear_120_6384)"/>
<path style="mix-blend-mode:screen" opacity="0.85" fill-rule="evenodd" clip-rule="evenodd" d="M321.1 100.3C321.1 125 249.3 145.1 160.6 145.1C71.9999 145.1 0.199951 125 0.199951 100.3C0.199951 75.4999 71.9999 55.3999 160.6 55.3999C249.3 55.3999 321.1 75.4999 321.1 100.3ZM319.3 98.7999C319.3 75.1999 248.2 55.9999 160.6 55.9999C72.9999 55.9999 1.99994 75.1999 1.99994 98.7999C1.99994 122.5 72.9999 141.6 160.6 141.6C248.2 141.6 319.3 122.5 319.3 98.7999Z" fill="url(#paint2_linear_120_6384)"/>
<path style="mix-blend-mode:multiply" opacity="0.9" d="M315.4 98.2C315.4 120.9 246.1 139.4 160.6 139.4C75.1999 139.4 5.8999 120.9 5.8999 98.2C5.8999 75.4 75.1999 57 160.6 57C246.1 57 315.4 75.4 315.4 98.2Z" fill="url(#paint3_linear_120_6384)"/>
<path d="M6.69983 99.3998C7.89983 104.1 12.6998 109.1 19.1998 113.3C19.1998 112.9 19.1998 111.9 19.1998 111.6C12.6998 107.4 7.79985 101.8 6.59985 96.9998C6.59985 97.3998 6.69983 98.9998 6.69983 99.3998ZM6.59985 96.9998C7.79985 101.8 12.6998 107.4 19.1998 111.6C19.1998 111.4 19.1998 111.2 19.1998 111C12.6998 106.9 7.79985 101.2 6.59985 96.4998C6.59985 96.6998 6.59985 96.8665 6.59985 96.9998ZM6.59985 96.4998C7.79985 101.2 12.6998 106.9 19.1998 111C19.1998 83.7998 19.4999 76.7998 19.4999 48.7998C8.69988 48.7998 17.2999 48.7998 6.59985 48.7998C6.59985 76.7998 6.59985 69.7998 6.59985 96.4998ZM19.1998 113.3C25.8998 117.6 34.8999 121.4 45.5999 124.5C45.5999 124.2 45.5999 123.2 45.5999 122.8C34.8999 119.6 25.8998 115.9 19.1998 111.6C19.1998 111.9 19.1998 112.9 19.1998 113.3ZM19.1998 111.6C25.8998 115.9 34.8999 119.6 45.5999 122.8C45.5999 122.6 45.5999 122.433 45.5999 122.3C34.8999 119.1 25.8998 115.4 19.1998 111C19.1998 111.2 19.1998 111.4 19.1998 111.6ZM19.1998 111C25.8998 115.4 34.8999 119.1 45.5999 122.3C45.6999 94.5998 45.9999 76.7998 45.9999 48.7998C33.8999 48.7998 30.6999 48.7998 19.4999 48.7998C19.4999 76.7998 19.1998 83.7998 19.1998 111ZM45.5999 124.5C60.9999 129.1 79.5998 132.5 100.2 135.1C100.2 134.7 100.5 134 100.5 133.7C79.8999 131.1 61.0999 127.3 45.5999 122.8C45.5999 123.2 45.5999 124.2 45.5999 124.5ZM45.5999 122.8C61.0999 127.3 79.8999 131.1 100.5 133.7C100.5 133.5 100.5 133.3 100.5 133.1C79.8999 130.6 61.0999 126.8 45.5999 122.3C45.5999 122.433 45.5999 122.6 45.5999 122.8ZM45.5999 122.3C61.0999 126.8 79.8999 130.6 100.5 133.1C100.6 105.1 103 76.7998 103 48.7998C82.7999 48.7998 63.4999 48.7998 45.9999 48.7998C45.9999 76.7998 45.6999 94.5998 45.5999 122.3ZM100.2 135.1C120.8 137.6 143.4 138.8 165.6 138.4C165.6 138.1 165.6 137.5 165.6 137.1C143.4 137.5 121.1 136.2 100.5 133.7C100.5 134 100.2 134.7 100.2 135.1ZM100.5 133.7C121.1 136.2 143.4 137.5 165.6 137.1C165.6 136.966 165.6 136.8 165.6 136.6C143.4 137 121.1 135.7 100.5 133.1C100.5 133.3 100.5 133.5 100.5 133.7ZM100.5 133.1C121.1 135.7 143.4 137 165.6 136.6C165.6 108.4 165.4 76.7998 165.4 48.7998C144.3 48.7998 123.2 48.7998 103 48.7998C103 76.7998 100.6 105.1 100.5 133.1ZM165.6 138.4C189.9 138 213.9 136.7 235.7 133.2C235.7 132.8 235.9 131.6 235.9 131.3C214.1 134.8 189.9 136.7 165.6 137.1C165.6 137.5 165.6 138.1 165.6 138.4ZM165.6 137.1C189.9 136.7 214.1 134.8 235.9 131.3C235.9 131.1 235.9 130.9 235.9 130.7C214.1 134.2 189.9 136.2 165.6 136.6C165.6 136.8 165.6 136.966 165.6 137.1ZM165.6 136.6C189.9 136.2 214.1 134.2 235.9 130.7C235.8 102.8 233.3 76.7998 233.3 48.7998C211.5 48.7998 188.5 48.7998 165.4 48.7998C165.4 76.7998 165.6 108.4 165.6 136.6ZM235.7 133.2C252.4 130.5 267.6 126.9 280.4 122.4C280.4 122.1 280.6 120.9 280.6 120.5C267.9 125 252.6 128.6 235.9 131.3C235.9 131.6 235.7 132.8 235.7 133.2ZM235.9 131.3C252.6 128.6 267.9 125 280.6 120.5C280.6 120.366 280.6 120.2 280.6 120C267.9 124.5 252.6 128.1 235.9 130.7C235.9 130.9 235.9 131.1 235.9 131.3ZM235.9 130.7C252.6 128.1 267.9 124.5 280.6 120C280.6 92.3998 280.5 76.7998 280.5 48.7998C265.9 48.7998 250 48.7998 233.3 48.7998C233.3 76.7998 235.8 102.8 235.9 130.7ZM280.4 122.4C290 119.1 298.4 115.1 304.7 110.7C304.7 110.4 304.7 109.2 304.7 108.9C298.4 113.3 290.2 117.2 280.6 120.5C280.6 120.9 280.4 122.1 280.4 122.4ZM280.6 120.5C290.2 117.2 298.4 113.3 304.7 108.9C304.7 108.7 304.7 108.5 304.7 108.3C298.4 112.7 290.2 116.6 280.6 120C280.6 120.2 280.6 120.366 280.6 120.5ZM280.6 120C290.2 116.6 298.4 112.7 304.7 108.3C304.7 81.1998 304.6 76.7998 304.6 48.7998C294.4 48.7998 291.5 48.7998 280.5 48.7998C280.5 76.7998 280.6 92.3998 280.6 120ZM304.7 110.7C308.9 107.8 312.3 104.4 314.7 97.8998C314.7 97.5998 314.7 96.3998 314.7 96.0998C312.3 102.6 308.9 105.9 304.7 108.9C304.7 109.2 304.7 110.4 304.7 110.7ZM304.7 108.9C308.9 105.9 312.3 102.6 314.7 96.0998C314.7 95.8998 314.7 95.6998 314.7 95.4998C312.3 102 308.9 105.4 304.7 108.3C304.7 108.5 304.7 108.7 304.7 108.9ZM304.7 108.3C308.9 105.4 312.3 102 314.7 95.4998C314.7 68.8998 314.7 76.7998 314.7 48.7998C307.9 48.7998 311.5 48.7998 304.6 48.7998C304.6 76.7998 304.7 81.1998 304.7 108.3Z" fill="url(#paint4_linear_120_6384)"/>
<path d="M315.2 51.5C315.2 78 246 99.5 160.6 99.5C75.2999 99.5 6.09985 78 6.09985 51.5C6.09985 25 75.2999 3.5 160.6 3.5C246 3.5 315.2 25 315.2 51.5Z" fill="url(#paint5_linear_120_6384)"/>
<path d="M315.2 49.1C315.2 76.2 246 98.2 160.6 98.2C75.2999 98.2 6.09985 76.2 6.09985 49.1C6.09985 22 75.2999 0 160.6 0C246 0 315.2 22 315.2 49.1Z" fill="url(#paint6_linear_120_6384)"/>
<path style="mix-blend-mode:screen" opacity="0.7" d="M160.8 96.8998C76.5999 96.7998 7.99983 74.4998 6.19983 47.7998C6.13316 48.1998 6.09985 48.5665 6.09985 48.8998C6.09985 75.9998 75.2999 97.9998 160.6 97.9998C246 97.9998 315.2 75.9998 315.2 48.8998C315.2 48.5665 315.167 48.1998 315.1 47.7998C313.3 74.4998 247.8 97.0998 160.8 96.8998Z" fill="url(#paint7_linear_120_6384)"/>
<path style="mix-blend-mode:screen" d="M312.2 47.5998C312.2 73.4998 244.4 94.4998 160.9 94.4998C77.2998 94.4998 9.59985 73.4998 9.59985 47.5998C9.59985 21.7998 77.2998 0.799805 160.9 0.799805C244.4 0.799805 312.2 21.7998 312.2 47.5998Z" fill="url(#paint8_linear_120_6384)"/>
<path style="mix-blend-mode:multiply" d="M299.5 42.0999C299.5 65.1999 237.3 83.8999 160.6 83.8999C83.8998 83.8999 21.7998 65.1999 21.7998 42.0999C21.7998 19.0999 83.8998 0.399902 160.6 0.399902C237.3 0.399902 299.5 19.0999 299.5 42.0999Z" fill="url(#paint9_linear_120_6384)"/>
<path d="M298.1 43.4001C298.1 66.8001 236.6 85.7001 160.6 85.7001C84.6997 85.7001 23.1997 66.8001 23.1997 43.4001C23.1997 20.0001 84.6997 1.1001 160.6 1.1001C236.6 1.1001 298.1 20.0001 298.1 43.4001Z" fill="url(#paint10_linear_120_6384)"/>
<mask id="mask0_120_6384" style="mask-type:luminance" maskUnits="userSpaceOnUse" x="26" y="2" width="269" height="79">
<path d="M159.8 51.72C159.55 54.9 159.31 57.83 159.08 60.77C158.84 63.7 158.61 66.63 158.35 69.8C158.09 72.97 157.81 76.39 157.5 80.3C166.16 80.36 174.54 80.18 182.59 79.79C190.65 79.3967 198.353 78.8167 205.7 78.05C213.046 77.2767 219.996 76.3467 226.55 75.26C233.103 74.1734 239.23 72.9567 244.93 71.61C250.623 70.2567 255.863 68.8 260.65 67.24C265.423 65.6734 269.716 64.02 273.53 62.28C277.343 60.54 280.653 58.7334 283.46 56.86C286.26 54.9867 288.54 53.0634 290.3 51.09C292.06 49.11 293.28 47.0934 293.96 45.0401C294.64 42.9901 294.77 40.89 294.36 38.87C293.95 36.84 293.01 34.88 291.61 32.97C290.203 31.07 288.353 29.2367 286.06 27.47C283.773 25.7034 281.1 24.0101 278.04 22.3901C274.98 20.7701 271.573 19.2334 267.82 17.78C264.073 16.3267 260.026 14.96 255.68 13.68C251.326 12.4067 246.71 11.2267 241.83 10.1401C236.95 9.05339 231.84 8.07004 226.5 7.19004C221.16 6.31004 215.616 5.5367 209.87 4.87004C204.13 4.21004 198.216 3.6667 192.13 3.24003C186.05 2.8067 179.823 2.50005 173.45 2.32005C167.08 2.15005 160.52 2.11005 154.13 2.20005C147.736 2.28672 141.466 2.50338 135.32 2.85005C129.173 3.19671 123.176 3.66003 117.33 4.24003C111.49 4.8267 105.83 5.52336 100.35 6.33003C94.8697 7.13669 89.6064 8.0467 84.5597 9.06004C79.5064 10.08 74.703 11.2001 70.1497 12.4201C65.5963 13.6334 61.333 14.94 57.3597 16.34C53.3797 17.74 49.7263 19.23 46.3997 20.81C43.0797 22.3834 40.133 24.0367 37.5597 25.77C34.993 27.5034 32.853 29.3134 31.1396 31.2001C29.4296 33.0801 28.1697 35.0301 27.4297 37.0401C26.6997 39.0601 26.4797 41.16 26.8397 43.21C27.193 45.2767 28.0897 47.3067 29.5297 49.3C30.9763 51.3067 32.9496 53.2634 35.4496 55.1701C37.9563 57.0834 40.973 58.9334 44.4997 60.72C48.033 62.5067 52.0596 64.2167 56.5796 65.85C61.0996 67.4767 66.0963 69.0034 71.5696 70.43C77.043 71.85 82.9663 73.1467 89.3397 74.32C95.7197 75.5 102.516 76.5234 109.73 77.3901C116.943 78.2634 124.54 78.9501 132.52 79.4501C140.506 79.9501 148.833 80.2334 157.5 80.3C157.81 76.39 158.09 72.97 158.35 69.8C158.61 66.63 158.84 63.7 159.08 60.77C159.31 57.83 159.55 54.9 159.8 51.72Z" fill="white"/>
</mask>
<g mask="url(#mask0_120_6384)">
<path d="M160.6 41.1999C160.4 44.4666 160.166 47.7332 159.9 50.9999C159.633 54.2666 159.366 57.5332 159.1 60.7999C158.833 64.0665 158.566 67.2999 158.3 70.4999C158.033 73.7666 157.766 77.0332 157.5 80.2999C160.9 80.2999 164.266 80.2999 167.6 80.2999C170.933 80.2332 174.233 80.1332 177.5 79.9999C180.766 79.8666 184 79.6999 187.2 79.4999C190.4 79.3666 193.533 79.1666 196.6 78.8999C199.733 78.6333 202.8 78.3332 205.8 77.9999C208.8 77.7332 211.766 77.3999 214.7 76.9999C217.633 76.5999 220.5 76.1999 223.3 75.7999C220.7 74.3332 218.066 72.8999 215.4 71.4999C212.8 70.0332 210.2 68.5666 207.6 67.0999C205 65.6999 202.4 64.2665 199.8 62.7999C197.2 61.3999 194.6 59.9666 192 58.4999C189.333 57.0332 186.7 55.5999 184.1 54.1999C181.5 52.7332 178.9 51.2999 176.3 49.8999C173.7 48.4332 171.1 46.9666 168.5 45.4999C165.9 44.0999 163.266 42.6666 160.6 41.1999ZM160.6 41.1999C163.266 42.6666 165.9 44.0999 168.5 45.4999C171.1 46.9666 173.7 48.4332 176.3 49.8999C178.9 51.2999 181.5 52.7332 184.1 54.1999C186.7 55.5999 189.333 57.0332 192 58.4999C194.6 59.9666 197.2 61.3999 199.8 62.7999C202.4 64.2665 205 65.7332 207.6 67.1999C210.2 68.5999 212.8 70.0332 215.4 71.4999C218.066 72.8999 220.7 74.3332 223.3 75.7999C227.3 75.1999 231.166 74.5332 234.9 73.7999C238.633 73.0665 242.233 72.2666 245.7 71.3999C249.233 70.5999 252.566 69.7332 255.7 68.7999C258.9 67.8665 261.9 66.8665 264.7 65.7999C267.566 64.7999 270.233 63.7666 272.7 62.6999C275.166 61.5666 277.466 60.3999 279.6 59.1999C281.666 58.0666 283.566 56.8666 285.3 55.5999C286.966 54.3332 288.433 53.0665 289.7 51.7999C286.366 51.5332 283.033 51.2666 279.7 50.9999C276.433 50.7332 273.133 50.4666 269.8 50.1999C266.533 49.9332 263.233 49.6332 259.9 49.2999C256.566 49.0332 253.266 48.7666 250 48.4999C246.666 48.2332 243.333 47.9666 240 47.6999C236.733 47.4332 233.433 47.1665 230.1 46.8999C226.833 46.6332 223.533 46.3666 220.2 46.0999C216.866 45.8332 213.566 45.5665 210.3 45.2999C206.966 45.0332 203.666 44.7666 200.4 44.4999C197.066 44.2332 193.733 43.9666 190.4 43.6999C187.133 43.4332 183.833 43.1665 180.5 42.8999C177.166 42.5665 173.866 42.2666 170.6 41.9999C167.266 41.7332 163.933 41.4666 160.6 41.1999ZM160.6 41.1999C163.933 41.4666 167.266 41.7332 170.6 41.9999C173.866 42.2666 177.166 42.5332 180.5 42.7999C183.833 43.1332 187.133 43.4332 190.4 43.6999C193.733 43.9666 197.066 44.2332 200.4 44.4999C203.666 44.7666 206.966 45.0332 210.3 45.2999C213.566 45.5665 216.866 45.8332 220.2 46.0999C223.533 46.3666 226.833 46.6332 230.1 46.8999C233.433 47.1665 236.733 47.4332 240 47.6999C243.333 47.9666 246.666 48.2332 250 48.4999C253.266 48.7666 256.566 49.0332 259.9 49.2999C263.233 49.6332 266.533 49.9332 269.8 50.1999C273.133 50.4666 276.433 50.7332 279.7 50.9999C283.033 51.2666 286.366 51.5332 289.7 51.7999C291.8 49.4999 293.3 47.1999 294 44.7999C294.8 42.3999 294.8 39.9999 294 37.5999C293.3 35.1999 291.8 32.8999 289.7 30.6999C287.5 28.3999 284.7 26.2999 281.3 24.1999C278.233 24.6666 275.133 25.0999 272 25.4999C268.933 25.9666 265.833 26.3999 262.7 26.7999C259.633 27.2665 256.566 27.6999 253.5 28.0999C250.366 28.5666 247.266 29.0332 244.2 29.4999C241.066 29.8999 237.966 30.3332 234.9 30.7999C231.766 31.1999 228.666 31.6332 225.6 32.0999C222.533 32.4999 219.433 32.9332 216.3 33.3999C213.233 33.7999 210.166 34.2332 207.1 34.6999C203.966 35.0999 200.866 35.5332 197.8 35.9999C194.666 36.4666 191.566 36.8999 188.5 37.2999C185.433 37.7665 182.333 38.1999 179.2 38.5999C176.133 39.0666 173.033 39.4999 169.9 39.8999C166.833 40.3665 163.733 40.7999 160.6 41.1999ZM160.6 41.1999C163.733 40.7999 166.833 40.3665 169.9 39.8999C173.033 39.4999 176.133 39.0666 179.2 38.5999C182.333 38.1999 185.433 37.7665 188.5 37.2999C191.566 36.8999 194.666 36.4666 197.8 35.9999C200.866 35.5332 203.966 35.0999 207.1 34.6999C210.166 34.2332 213.233 33.7999 216.3 33.3999C219.433 32.9332 222.533 32.4999 225.6 32.0999C228.666 31.6332 231.766 31.1999 234.9 30.7999C237.966 30.3332 241.066 29.8999 244.2 29.4999C247.266 29.0332 250.366 28.5666 253.5 28.0999C256.566 27.6999 259.633 27.2665 262.7 26.7999C265.833 26.3999 268.933 25.9666 272 25.4999C275.133 25.0999 278.233 24.6666 281.3 24.1999C279.433 23.0666 277.4 21.9999 275.2 20.9999C273 19.9332 270.633 18.8999 268.1 17.8999C265.566 16.8999 262.9 15.9332 260.1 14.9999C257.233 14.1332 254.266 13.2666 251.2 12.3999C248.066 11.5999 244.833 10.8332 241.5 10.0999C238.5 11.2332 235.5 12.3666 232.5 13.4999C229.5 14.6999 226.5 15.8666 223.5 16.9999C220.5 18.1332 217.5 19.2665 214.5 20.3999C211.5 21.5999 208.5 22.7665 205.5 23.8999C202.5 25.0332 199.533 26.1999 196.6 27.3999C193.6 28.5332 190.6 29.6665 187.6 30.7999C184.6 31.9999 181.6 33.1665 178.6 34.2999C175.6 35.4332 172.6 36.5999 169.6 37.7999C166.6 38.9332 163.6 40.0666 160.6 41.1999ZM160.6 41.1999C163.6 40.0666 166.6 38.9332 169.6 37.7999C172.6 36.5999 175.6 35.4332 178.6 34.2999C181.6 33.1665 184.6 31.9999 187.6 30.7999C190.6 29.6665 193.6 28.5332 196.6 27.3999C199.533 26.1999 202.5 25.0332 205.5 23.8999C208.5 22.7665 211.5 21.5999 214.5 20.3999C217.5 19.2665 220.5 18.1332 223.5 16.9999C226.5 15.8666 229.5 14.6999 232.5 13.4999C235.5 12.3666 238.5 11.2332 241.5 10.0999C238.766 9.4999 236 8.93322 233.2 8.39988C230.333 7.86655 227.4 7.36655 224.4 6.89988C221.4 6.36655 218.333 5.89989 215.2 5.49989C212.133 5.09989 208.966 4.73322 205.7 4.39988C202.433 4.06655 199.133 3.76656 195.8 3.49989C192.466 3.23322 189.066 2.99988 185.6 2.79988C182.133 2.59988 178.633 2.46655 175.1 2.39988C174.1 4.99988 173.133 7.56656 172.2 10.0999C171.2 12.6999 170.233 15.2999 169.3 17.8999C168.3 20.4999 167.333 23.0999 166.4 25.6999C165.466 28.2999 164.5 30.8999 163.5 33.4999C162.566 36.0332 161.6 38.5999 160.6 41.1999ZM160.6 41.1999C161.6 38.5999 162.566 36.0332 163.5 33.4999C164.5 30.8999 165.466 28.2999 166.4 25.6999C167.333 23.0999 168.3 20.4999 169.3 17.8999C170.233 15.2999 171.2 12.6999 172.2 10.0999C173.133 7.56656 174.1 4.99988 175.1 2.39988C171.966 2.26655 168.8 2.1999 165.6 2.1999C162.4 2.13324 159.2 2.13324 156 2.1999C152.8 2.1999 149.666 2.26655 146.6 2.39988C143.466 2.46655 140.366 2.56657 137.3 2.6999C134.233 2.8999 131.233 3.09988 128.3 3.29988C130.433 5.83321 132.566 8.36655 134.7 10.8999C136.9 13.4332 139.066 15.9666 141.2 18.4999C143.4 21.0332 145.566 23.5666 147.7 26.0999C149.833 28.5666 152 31.0666 154.2 33.5999C156.333 36.1332 158.466 38.6666 160.6 41.1999C160.666 41.1999 160.666 41.1999 160.6 41.1999ZM160.6 41.1999C158.466 38.6666 156.333 36.1332 154.2 33.5999C152 31.0666 149.833 28.5666 147.7 26.0999C145.566 23.5666 143.4 21.0332 141.2 18.4999C139.066 15.9666 136.9 13.4332 134.7 10.8999C132.566 8.36655 130.433 5.83321 128.3 3.29988C125.433 3.49988 122.566 3.73322 119.7 3.99989C116.9 4.26656 114.133 4.56655 111.4 4.89988C108.666 5.23322 106 5.56655 103.4 5.89988C106.066 7.56655 108.766 9.23322 111.5 10.8999C114.233 12.6332 116.966 14.3332 119.7 15.9999C122.433 17.6666 125.166 19.3332 127.9 20.9999C130.633 22.7332 133.366 24.4332 136.1 26.0999C138.833 27.7666 141.566 29.4332 144.3 31.0999C147.033 32.8332 149.733 34.5332 152.4 36.1999C155.133 37.8666 157.866 39.5332 160.6 41.1999ZM160.6 41.1999C157.866 39.5332 155.133 37.8666 152.4 36.1999C149.733 34.5332 147.033 32.8332 144.3 31.0999C141.566 29.4332 138.833 27.7666 136.1 26.0999C133.366 24.4332 130.633 22.7332 127.9 20.9999C125.166 19.3332 122.433 17.6666 119.7 15.9999C116.966 14.3332 114.233 12.6332 111.5 10.8999C108.766 9.23322 106.066 7.56655 103.4 5.89988C100.133 6.36655 96.9662 6.83321 93.8996 7.29988C90.8329 7.83321 87.8663 8.39989 84.9996 8.99989C82.0663 9.59989 79.2329 10.1999 76.4996 10.7999C73.7663 11.4665 71.1329 12.1332 68.5996 12.7999C66.0663 13.5332 63.5996 14.2666 61.1996 14.9999C58.8662 15.7999 56.6329 16.5999 54.4996 17.3999C57.6996 18.1332 60.8996 18.8666 64.0996 19.5999C67.2996 20.3332 70.4996 21.0332 73.6996 21.6999C76.9662 22.4332 80.1996 23.1665 83.3996 23.8999C86.5996 24.6332 89.7996 25.3666 92.9996 26.0999C96.2663 26.8332 99.4996 27.5332 102.7 28.1999C105.9 28.9332 109.1 29.6665 112.3 30.3999C115.566 31.1332 118.8 31.8666 122 32.5999C125.2 33.3332 128.4 34.0332 131.6 34.6999C134.866 35.4332 138.1 36.1665 141.3 36.8999C144.5 37.6332 147.7 38.3666 150.9 39.0999C154.166 39.8332 157.4 40.5332 160.6 41.1999ZM160.6 41.1999C157.4 40.5332 154.166 39.8332 150.9 39.0999C147.7 38.3666 144.5 37.6332 141.3 36.8999C138.1 36.1665 134.866 35.4332 131.6 34.6999C128.4 34.0332 125.2 33.3332 122 32.5999C118.8 31.8666 115.566 31.1332 112.3 30.3999C109.1 29.6665 105.9 28.9332 102.7 28.1999C99.4996 27.5332 96.2663 26.8332 92.9996 26.0999C89.7996 25.3666 86.5996 24.6332 83.3996 23.8999C80.1996 23.1665 76.9662 22.4332 73.6996 21.6999C70.4996 21.0332 67.2996 20.3332 64.0996 19.5999C60.8996 18.8666 57.6996 18.1332 54.4996 17.3999C51.0329 18.6666 47.8663 20.0332 44.9996 21.4999C42.1996 22.8999 39.6662 24.3665 37.3996 25.8999C35.1996 27.4332 33.2996 28.9999 31.6996 30.5999C30.1662 32.1999 28.9663 33.8666 28.0996 35.5999C31.2329 35.7332 34.3663 35.8666 37.4996 35.9999C40.6996 36.1332 43.8663 36.2665 46.9996 36.3999C50.1329 36.5332 53.2996 36.6665 56.4996 36.7999C59.6329 36.9332 62.7662 37.0666 65.8996 37.1999C69.0996 37.3332 72.2662 37.4666 75.3996 37.5999C78.5329 37.7332 81.6663 37.8666 84.7996 37.9999C87.9996 38.1332 91.1663 38.2665 94.2996 38.3999C97.4329 38.5332 100.6 38.6665 103.8 38.7999C106.933 38.9332 110.066 39.0666 113.2 39.1999C116.4 39.3332 119.566 39.4666 122.7 39.5999C125.833 39.7332 129 39.8666 132.2 39.9999C135.333 40.1332 138.466 40.2665 141.6 40.3999C144.8 40.5332 147.966 40.6665 151.1 40.7999C154.233 40.9999 157.4 41.1665 160.6 41.2999C160.6 41.2999 160.6 41.2666 160.6 41.1999ZM160.6 41.2999C157.4 41.1665 154.233 40.9999 151.1 40.7999C147.966 40.6665 144.8 40.5332 141.6 40.3999C138.466 40.2665 135.333 40.1332 132.2 39.9999C129 39.8666 125.833 39.7332 122.7 39.5999C119.566 39.4666 116.4 39.3332 113.2 39.1999C110.066 39.0666 106.933 38.9332 103.8 38.7999C100.6 38.6665 97.4329 38.5332 94.2996 38.3999C91.1663 38.2665 87.9996 38.1332 84.7996 37.9999C81.6663 37.8666 78.5329 37.7332 75.3996 37.5999C72.2662 37.4666 69.0996 37.3332 65.8996 37.1999C62.7662 37.0666 59.6329 36.9332 56.4996 36.7999C53.2996 36.6665 50.1329 36.5332 46.9996 36.3999C43.8663 36.2665 40.6996 36.1332 37.4996 35.9999C34.3663 35.8666 31.2329 35.7332 28.0996 35.5999C26.7996 38.0999 26.3996 40.6999 26.7996 43.2999C27.2996 45.7999 28.5996 48.2999 30.5996 50.6999C32.6996 53.0999 35.4996 55.4999 39.0996 57.6999C42.1663 57.2332 45.2662 56.7999 48.3996 56.3999C51.5329 55.9999 54.6663 55.5666 57.7996 55.0999C60.8663 54.6999 63.9663 54.2999 67.0996 53.8999C70.2329 53.4332 73.3329 52.9999 76.3996 52.5999C79.5329 52.1999 82.6663 51.7665 85.7996 51.2999C88.9329 50.8999 92.0329 50.4999 95.0996 50.0999C98.2329 49.6999 101.366 49.2665 104.5 48.7999C107.633 48.3999 110.733 47.9999 113.8 47.5999C116.933 47.1332 120.066 46.6999 123.2 46.2999C126.333 45.8999 129.433 45.4666 132.5 44.9999C135.633 44.5999 138.766 44.1999 141.9 43.7999C145.033 43.3332 148.133 42.8999 151.2 42.4999C154.333 42.0999 157.466 41.6999 160.6 41.2999ZM160.6 41.2999C157.466 41.6999 154.333 42.0999 151.2 42.4999C148.133 42.8999 145.033 43.3332 141.9 43.7999C138.766 44.1999 135.633 44.5999 132.5 44.9999C129.433 45.4666 126.333 45.8999 123.2 46.2999C120.066 46.6999 116.933 47.1332 113.8 47.5999C110.733 47.9999 107.633 48.3999 104.5 48.7999C101.366 49.2665 98.2329 49.6999 95.0996 50.0999C92.0329 50.4999 88.9329 50.8999 85.7996 51.2999C82.6663 51.7665 79.5329 52.1999 76.3996 52.5999C73.3329 52.9999 70.2329 53.4332 67.0996 53.8999C63.9663 54.2999 60.8663 54.6999 57.7996 55.0999C54.6663 55.5666 51.5329 55.9999 48.3996 56.3999C45.2662 56.7999 42.1663 57.2332 39.0996 57.6999C40.9663 58.8999 43.0329 60.0332 45.2996 61.0999C47.6329 62.2332 50.1329 63.3332 52.7996 64.3999C55.3996 65.4665 58.1996 66.4666 61.1996 67.3999C64.1996 68.3999 67.3662 69.3332 70.6996 70.1999C74.0329 71.0666 77.4996 71.8999 81.0996 72.6999C84.0329 71.4999 86.9662 70.3332 89.8996 69.1999C92.8329 67.9999 95.7996 66.8332 98.7996 65.6999C101.733 64.4999 104.666 63.3332 107.6 62.1999C110.533 60.9999 113.466 59.8332 116.4 58.6999C119.333 57.5666 122.3 56.3999 125.3 55.1999C128.233 54.0666 131.166 52.8999 134.1 51.6999C137.033 50.5666 139.966 49.3999 142.9 48.1999C145.9 47.0666 148.866 45.8999 151.8 44.6999C154.733 43.5666 157.666 42.3999 160.6 41.1999C160.6 41.1999 160.6 41.2332 160.6 41.2999ZM160.6 41.1999C157.666 42.3999 154.733 43.5666 151.8 44.6999C148.866 45.8999 145.9 47.0666 142.9 48.1999C139.966 49.3999 137.033 50.5666 134.1 51.6999C131.166 52.8999 128.233 54.0666 125.3 55.1999C122.3 56.3999 119.333 57.5666 116.4 58.6999C113.466 59.8332 110.533 60.9999 107.6 62.1999C104.666 63.3332 101.733 64.4999 98.7996 65.6999C95.7996 66.8332 92.8329 67.9999 89.8996 69.1999C86.9662 70.3332 84.0329 71.4999 81.0996 72.6999C83.7663 73.2332 86.4996 73.7665 89.2996 74.2999C92.1663 74.8332 95.0663 75.3332 97.9996 75.7999C101 76.2665 104.033 76.6999 107.1 77.0999C110.233 77.4999 113.4 77.8666 116.6 78.1999C119.8 78.4666 123.066 78.7332 126.4 78.9999C129.666 79.2666 133.033 79.4999 136.5 79.6999C139.9 79.8332 143.366 79.9665 146.9 80.0999C150.366 80.2332 153.9 80.2999 157.5 80.2999C157.766 77.0332 158.033 73.7666 158.3 70.4999C158.566 67.2999 158.833 64.0665 159.1 60.7999C159.366 57.5332 159.633 54.2666 159.9 50.9999C160.166 47.7332 160.4 44.4666 160.6 41.1999Z" fill="url(#paint11_linear_120_6384)"/>
</g>
<path d="M282.1 49.1998C281.6 63.7998 227.7 78.2998 160.6 78.2998C93.4998 78.2998 38.7998 64.9998 38.9998 49.1998C39.0998 48.0998 38.7998 39.9998 39.2998 38.9998C45.4998 22.7998 97.5998 11.2998 160.6 11.2998C223.4 11.2998 275.7 23.1998 282 39.3998C282.4 40.4998 282.1 48.0998 282.1 49.1998Z" fill="url(#paint12_linear_120_6384)"/>
<path d="M282.1 40.4999C282.1 58.1999 227.7 72.4999 160.6 72.4999C93.4997 72.4999 38.9998 58.1999 38.9998 40.4999C38.9998 22.7999 93.4997 8.3999 160.6 8.3999C227.7 8.3999 282.1 22.7999 282.1 40.4999Z" fill="url(#paint13_linear_120_6384)"/>
<path style="mix-blend-mode:screen" opacity="0.75" fill-rule="evenodd" clip-rule="evenodd" d="M282.3 40.3998C282.3 58.0998 227.9 72.4998 160.9 72.4998C93.8997 72.4998 39.4998 58.0998 39.4998 40.3998C39.4998 22.6998 93.8997 8.2998 160.9 8.2998C227.9 8.2998 282.3 22.6998 282.3 40.3998ZM281.2 40.1998C281.2 23.1998 227.3 9.49982 160.9 9.49982C94.4997 9.49982 40.5997 23.1998 40.5997 40.1998C40.5997 57.1998 94.4997 70.8998 160.9 70.8998C227.3 70.8998 281.2 57.1998 281.2 40.1998Z" fill="url(#paint14_linear_120_6384)"/>
<path d="M141.9 53.4997H178C224.6 53.4997 246.7 38.4997 232.9 25.3997L220.5 13.7997C202.4 10.9997 182.1 9.69971 160.7 9.69971C139.4 9.69971 118.7 11.1997 100.5 13.8997L88 25.3997C73.8 38.4997 95.2999 53.4997 141.9 53.4997Z" fill="url(#paint15_linear_120_6384)"/>
<path opacity="0.8" d="M233.4 24.4999L221.8 13.9999C221.467 13.9999 221.1 13.9666 220.7 13.8999L232.6 25.0999C246.2 38.3999 224.4 53.6999 178.1 53.6999H142.4C96.1998 53.6999 74.8999 38.3999 88.9999 24.9999L100.7 13.9999C100.366 14.0666 99.9998 14.0999 99.5998 14.0999L87.8998 24.8999C73.3998 38.2999 94.2998 54.4999 141.9 54.4999H178.7C226.3 54.4999 247.5 37.8999 233.4 24.4999Z" fill="url(#paint16_linear_120_6384)"/>
<path d="M87.0999 31.5001L88.1998 40.3001C88.1998 40.3001 95.0999 47.2001 109.5 50.1001C129.6 54.1001 166 53.5001 180.8 53.0001C209.3 52.0001 222 47.0001 225.9 45.0001C230.8 42.4001 234.2 38.8001 234.2 38.8001V30.6001L87.0999 31.5001Z" fill="url(#paint17_linear_120_6384)"/>
<path d="M142.9 51.5999H177.6C222.6 51.5999 243.8 37.0999 230.6 24.4999L219.1 13.7999C201.6 11.0999 181.6 9.3999 161 9.3999C140.5 9.3999 120.6 10.7999 103.1 13.3999L90.9999 24.4999C77.2999 37.0999 97.9999 51.5999 142.9 51.5999Z" fill="url(#paint18_linear_120_6384)"/>
<path style="mix-blend-mode:screen" d="M39.8998 39.8998C39.8998 50.6998 61.1998 60.1998 93.5998 65.7998L265.3 24.0998C244.3 14.8998 205.4 8.7998 161 8.7998C94.0998 8.7998 39.8998 22.6998 39.8998 39.8998Z" fill="url(#paint19_linear_120_6384)"/>
<path opacity="0.8" d="M177.1 62.3994C177.7 63.9994 176.5 65.2994 174.3 65.2994H146.9C144.8 65.2994 143.6 63.9994 144.1 62.3994C144.7 60.9994 146.6 59.8994 148.5 59.8994H172.8C174.7 59.8994 176.6 60.9994 177.1 62.3994Z" fill="url(#paint20_linear_120_6384)"/>
<path d="M176.5 62.3995C177 63.8995 175.8 65.1995 173.8 65.1995H147.5C145.5 65.1995 144.3 63.8995 144.8 62.3995C145.3 60.9995 147.1 59.9995 149 59.9995H172.3C174.2 59.9995 176 60.9995 176.5 62.3995Z" fill="url(#paint21_linear_120_6384)"/>
<path d="M176 61.9996C176.5 63.4996 175.3 64.6996 173.4 64.6996H147.9C145.9 64.6996 144.7 63.4996 145.2 61.9996C145.7 60.6996 147.5 59.5996 149.3 59.5996H172C173.8 59.5996 175.6 60.6996 176 61.9996Z" fill="url(#paint22_linear_120_6384)"/>
<path style="mix-blend-mode:screen" fill-rule="evenodd" clip-rule="evenodd" d="M176 61.9996C176.5 63.4996 175.3 64.6996 173.4 64.6996H147.9C145.9 64.6996 144.7 63.4996 145.2 61.9996C145.7 60.6996 147.5 59.5996 149.3 59.5996H172C173.8 59.5996 175.6 60.6996 176 61.9996ZM175.7 61.8996C175.3 60.6996 173.6 59.7996 171.8 59.7996H149.5C147.7 59.7996 146 60.6996 145.6 61.8996C145.2 63.1996 146.3 64.3996 148.2 64.3996H172.9C174.8 64.3996 176.1 63.1996 175.7 61.8996Z" fill="url(#paint23_linear_120_6384)"/>
<path fill-rule="evenodd" clip-rule="evenodd" d="M132.4 28.7994H130.7L131.6 27.2994H128.9L128 28.7994H126.3C125.7 28.7994 125.3 28.5994 125.5 28.2994L126.6 26.6994H126.1L126 26.5994C125.666 26.5328 125.533 26.3994 125.6 26.1994C125.733 26.0661 126 25.9661 126.4 25.8994L130.8 24.5994C131.3 24.4994 131.6 24.3994 132 24.3994C132.3 24.3994 132.5 24.4994 132.8 24.5994H132.9L133.1 24.6994H135.1L134.7 25.3994L135.5 25.6994L136 25.9994C136.066 26.0661 136.1 26.1328 136.1 26.1994C136 26.3994 135.6 26.5994 135.2 26.5994H135H134.6L133.8 28.2994C133.5 28.6994 132.7 28.7994 132.4 28.7994ZM131.2 28.5994H132.5C132.8 28.5994 133.2 28.4994 133.3 28.2994L134.3 26.4994H135.1C135.4 26.3994 135.6 26.2994 135.7 26.1994C135.7 26.1328 135.633 26.0661 135.5 25.9994L135.3 25.8994L134.3 25.4994L134.6 24.7994H133.4L133.3 25.0994L132.5 24.6994C132.2 24.5994 132.1 24.5994 131.9 24.5994C131.6 24.5994 131.4 24.5994 131 24.6994L126.6 25.9994C126.266 26.0661 126.1 26.1328 126.1 26.1994C126.033 26.3328 126.1 26.4328 126.3 26.4994H127.1L126 28.2994C125.8 28.4994 126.1 28.5994 126.4 28.5994H127.7L128.5 27.1994C128.6 27.0994 128.7 27.0994 128.9 27.0994H131.8C132 27.0994 132.066 27.1328 132 27.1994L131.2 28.5994Z" fill="url(#paint24_linear_120_6384)"/>
<path d="M185.6 25.7994C185.4 25.7994 185.3 25.7994 185.3 25.6994L185.1 24.4994C185 24.4994 185.2 24.3994 185.3 24.3994C185.4 24.3994 185.6 24.4994 185.6 24.4994L185.8 25.6994C185.8 25.7994 185.7 25.7994 185.6 25.7994Z" fill="url(#paint25_linear_120_6384)"/>
<path d="M186.1 28.9994C186 28.9994 185.9 28.8994 185.9 28.8994L185.6 27.4994C185.6 27.3994 185.7 27.3994 185.8 27.3994C186 27.3994 186.1 27.3994 186.1 27.4994L186.4 28.8994C186.4 28.8994 186.3 28.9994 186.1 28.9994Z" fill="url(#paint26_linear_120_6384)"/>
<path d="M186.8 25.9993C186.733 25.9993 186.667 25.9993 186.6 25.9993C186.467 25.9993 186.433 25.966 186.5 25.8993L188.2 24.7993C188.3 24.7993 188.4 24.7993 188.5 24.7993C188.633 24.866 188.667 24.9327 188.6 24.9993L187 25.9993C186.933 25.9993 186.867 25.9993 186.8 25.9993Z" fill="url(#paint27_linear_120_6384)"/>
<path d="M182.9 28.5992C182.833 28.5992 182.766 28.5992 182.7 28.5992C182.6 28.4992 182.5 28.4992 182.6 28.3992L184.4 27.2992C184.5 27.1992 184.7 27.1992 184.8 27.1992C184.9 27.2992 184.9 27.2992 184.9 27.3992L183.1 28.4992C183.033 28.5659 182.966 28.5992 182.9 28.5992Z" fill="url(#paint28_linear_120_6384)"/>
<path d="M187.5 26.4993C187.4 26.4993 187.3 26.3993 187.3 26.3993C187.2 26.3993 187.3 26.2993 187.4 26.2993L190.5 25.7993C190.6 25.7993 190.8 25.7993 190.9 25.8993C190.9 25.8993 190.9 25.9993 190.7 25.9993L187.6 26.4993C187.6 26.4993 187.566 26.4993 187.5 26.4993Z" fill="url(#paint29_linear_120_6384)"/>
<path d="M180.7 27.4993C180.566 27.4993 180.466 27.466 180.4 27.3993C180.4 27.3993 180.4 27.2993 180.6 27.2993L183.8 26.7993C183.9 26.7993 184.1 26.7993 184.1 26.8993C184.2 26.8993 184.1 26.9993 184 26.9993L180.8 27.4993C180.733 27.4993 180.7 27.4993 180.7 27.4993Z" fill="url(#paint30_linear_120_6384)"/>
<path d="M191.1 27.2997L187.7 26.8997C187.6 26.8997 187.5 26.8997 187.5 26.7997C187.5 26.7997 187.7 26.6997 187.8 26.6997L191.1 27.0997C191.3 27.0997 191.4 27.1997 191.4 27.1997C191.3 27.2997 191.2 27.2997 191.1 27.2997Z" fill="url(#paint31_linear_120_6384)"/>
<path d="M183.7 26.4995C183.7 26.4995 183.666 26.4995 183.6 26.4995L180.3 26.1995C180.166 26.1329 180.1 26.0995 180.1 26.0995C180.2 25.9995 180.3 25.9995 180.4 25.9995L183.7 26.2995C183.9 26.2995 184 26.3995 183.9 26.3995C183.9 26.4662 183.833 26.4995 183.7 26.4995Z" fill="url(#paint32_linear_120_6384)"/>
<path d="M189.6 28.4996C189.533 28.4996 189.466 28.4663 189.4 28.3996L186.8 27.2996C186.733 27.2329 186.733 27.1663 186.8 27.0996C186.9 27.0996 187.1 27.0996 187.2 27.1996L189.8 28.2996C189.9 28.2996 189.9 28.3996 189.8 28.3996C189.733 28.4663 189.666 28.4996 189.6 28.4996Z" fill="url(#paint33_linear_120_6384)"/>
<path d="M184.2 26.0994C184.133 26.0994 184.066 26.0661 184 25.9994L181.8 25.0994C181.733 25.0328 181.733 24.9661 181.8 24.8994C181.9 24.8994 182.1 24.8994 182.2 24.8994L184.3 25.8994C184.433 25.9661 184.433 25.9994 184.3 25.9994C184.3 26.0661 184.266 26.0994 184.2 26.0994Z" fill="url(#paint34_linear_120_6384)"/>
<path d="M206.2 28.7992C203.6 28.7992 201.2 27.8992 200.8 26.8992C200.5 26.0992 201.4 25.4992 203 25.1992C203.2 25.1992 203.3 25.1992 203.4 25.2992C203.466 25.3659 203.433 25.3992 203.3 25.3992C201.8 25.5992 201 26.1992 201.3 26.8992C201.7 27.7992 203.9 28.5992 206.1 28.5992C208.4 28.5992 209.9 27.7992 209.4 26.8992C209.1 26.1992 207.8 25.6992 206.1 25.3992C206 25.3992 205.9 25.2992 205.9 25.2992C205.9 25.1992 206.1 25.1992 206.2 25.1992C208.1 25.4992 209.6 26.1992 210 26.8992C210.5 27.8992 208.8 28.7992 206.2 28.7992Z" fill="url(#paint35_linear_120_6384)"/>
<path d="M205.3 26.6994C205.1 26.6994 205 26.5994 204.9 26.5994L204 24.4994C204 24.4994 204.1 24.3994 204.2 24.3994C204.4 24.3994 204.5 24.4994 204.5 24.4994L205.5 26.5994C205.5 26.5994 205.4 26.6994 205.3 26.6994Z" fill="url(#paint36_linear_120_6384)"/>
<path fill-rule="evenodd" clip-rule="evenodd" d="M163.9 27.0994L163.6 27.3994C163.5 27.4994 163.4 27.4994 163.3 27.4994L162.3 27.3994C161.9 27.6661 161.4 27.8661 160.8 27.9994L161 28.3994C161 28.4661 160.966 28.4994 160.9 28.4994L160.2 28.6994C160.1 28.6994 160 28.6994 159.9 28.5994L159.4 28.2994C159.066 28.2994 158.733 28.2994 158.4 28.2994C158.066 28.2994 157.733 28.2994 157.4 28.2994L156.8 28.6994C156.8 28.6994 156.6 28.6994 156.5 28.6994L155.9 28.5994C155.766 28.5994 155.733 28.5661 155.8 28.4994L156.1 28.0994C155.5 27.8994 155 27.6994 154.7 27.4994L153.6 27.5994C153.5 27.5994 153.4 27.5994 153.4 27.5994L153.2 27.2994C153.1 27.2994 153.2 27.1994 153.3 27.1994L154.3 26.8994C154.233 26.8327 154.2 26.7328 154.2 26.5994C154.266 26.3994 154.333 26.2328 154.4 26.0994L153.5 25.8994C153.433 25.8994 153.433 25.8661 153.5 25.7994L153.8 25.5994C153.8 25.4994 153.9 25.4994 154 25.4994L155.1 25.5994C155.5 25.3994 156 25.2328 156.6 25.0994L156.3 24.6994C156.3 24.6328 156.366 24.5994 156.5 24.5994L157.1 24.3994C157.2 24.3994 157.3 24.3994 157.4 24.4994L157.9 24.7994C158.233 24.7994 158.533 24.7994 158.8 24.7994C159.133 24.7994 159.466 24.7994 159.8 24.7994L160.4 24.3994C160.5 24.3994 160.6 24.3994 160.7 24.3994L161.3 24.4994C161.433 24.4994 161.466 24.5328 161.4 24.5994L161.1 24.9994C161.566 25.1328 161.966 25.2994 162.3 25.4994L163.4 25.3994C163.5 25.3994 163.6 25.3994 163.6 25.3994L163.9 25.6994C163.9 25.6994 163.866 25.7327 163.8 25.7994L162.9 25.9994C162.966 26.1328 163 26.2661 163 26.3994C163 26.5327 162.966 26.6661 162.9 26.7994L163.8 26.9994C163.866 27.0661 163.9 27.0994 163.9 27.0994ZM162.5 26.4994C162.6 25.5994 161 24.9994 158.9 24.9994C156.8 24.9994 154.9 25.5994 154.7 26.4994C154.5 27.3994 156.1 28.0994 158.3 28.0994C160.5 28.0994 162.4 27.3994 162.5 26.4994Z" fill="url(#paint37_linear_120_6384)"/>
<path fill-rule="evenodd" clip-rule="evenodd" d="M158.4 27.3996C157.1 27.3996 156.1 26.9996 156.3 26.4996C156.4 25.9996 157.5 25.5996 158.8 25.5996C160.1 25.5996 161.1 25.9996 161 26.4996C160.9 26.9996 159.7 27.3996 158.4 27.3996ZM158.8 25.6996C157.7 25.6996 156.8 26.0996 156.7 26.4996C156.6 26.8996 157.4 27.2996 158.5 27.2996C159.5 27.2996 160.5 26.8996 160.5 26.4996C160.6 26.0996 159.8 25.6996 158.8 25.6996Z" fill="url(#paint38_linear_120_6384)"/>
<path fill-rule="evenodd" clip-rule="evenodd" d="M158.5 26.7992C158.1 26.7992 157.8 26.6992 157.8 26.4992C157.8 26.2992 158.2 26.1992 158.7 26.1992C159.1 26.1992 159.5 26.2992 159.4 26.4992C159.4 26.6992 159 26.7992 158.5 26.7992ZM158.6 26.2992C158.4 26.2992 158.1 26.3992 158.1 26.4992C158.1 26.5992 158.3 26.6992 158.6 26.6992C158.8 26.6992 159.1 26.5992 159.1 26.4992C159.1 26.3992 158.9 26.2992 158.6 26.2992Z" fill="url(#paint39_linear_120_6384)"/>
<defs>
<linearGradient id="paint0_linear_120_6384" x1="13.483" y1="135.1" x2="92.6366" y2="156.375" gradientUnits="userSpaceOnUse">
<stop stop-color="#ADADAD"/>
<stop offset="1" stop-color="#050505"/>
</linearGradient>
<linearGradient id="paint1_linear_120_6384" x1="64.224" y1="-32.0131" x2="307.538" y2="163.266" gradientUnits="userSpaceOnUse">
<stop stop-color="#DCDADA"/>
<stop offset="0.206" stop-color="#898989"/>
<stop offset="0.381" stop-color="#DBDBDB"/>
<stop offset="0.613" stop-color="#737373"/>
<stop offset="0.849" stop-color="#DCDADA"/>
<stop offset="1" stop-color="#B0B3BD"/>
</linearGradient>
<linearGradient id="paint2_linear_120_6384" x1="64.224" y1="-32.0131" x2="307.538" y2="163.266" gradientUnits="userSpaceOnUse">
<stop stop-color="#3B3B3B"/>
<stop offset="0.398" stop-color="#EBEBEB"/>
<stop offset="0.694" stop-color="#2E2E2E"/>
<stop offset="1" stop-color="#CFCFCF"/>
</linearGradient>
<linearGradient id="paint3_linear_120_6384" x1="4.1879" y1="55.564" x2="358.79" y2="58.6052" gradientUnits="userSpaceOnUse">
<stop stop-color="#9E9E9E"/>
<stop offset="0.495"/>
<stop offset="1" stop-color="#828282"/>
</linearGradient>
<linearGradient id="paint4_linear_120_6384" x1="6.76585" y1="96.8338" x2="100.005" y2="134.754" gradientUnits="userSpaceOnUse">
<stop stop-color="#ADADAD"/>
<stop offset="1"/>
</linearGradient>
<linearGradient id="paint5_linear_120_6384" x1="6.12885" y1="3.486" x2="315.153" y2="3.486" gradientUnits="userSpaceOnUse">
<stop stop-color="#9E9E9E"/>
<stop offset="0.484" stop-color="#1F1F1F"/>
<stop offset="1" stop-color="#9E9E9E"/>
</linearGradient>
<linearGradient id="paint6_linear_120_6384" x1="6.12885" y1="0.0310011" x2="315.153" y2="0.0310011" gradientUnits="userSpaceOnUse">
<stop stop-color="#9E9E9E"/>
<stop offset="0.484"/>
<stop offset="1" stop-color="#9E9E9E"/>
</linearGradient>
<linearGradient id="paint7_linear_120_6384" x1="6.12885" y1="47.8458" x2="315.153" y2="47.8458" gradientUnits="userSpaceOnUse">
<stop stop-color="#3B3B3B"/>
<stop offset="0.543" stop-color="#DBDBDB"/>
<stop offset="1" stop-color="#2E2E2E"/>
</linearGradient>
<linearGradient id="paint8_linear_120_6384" x1="177.844" y1="-21.1012" x2="175.114" y2="107.129" gradientUnits="userSpaceOnUse">
<stop stop-color="white"/>
<stop offset="1"/>
</linearGradient>
<linearGradient id="paint9_linear_120_6384" x1="77.8408" y1="-76.1841" x2="291.348" y2="95.1714" gradientUnits="userSpaceOnUse">
<stop stop-color="#DCDADA"/>
<stop offset="0.206" stop-color="#898989"/>
<stop offset="0.381" stop-color="#DBDBDB"/>
<stop offset="0.613" stop-color="#737373"/>
<stop offset="0.849" stop-color="#DCDADA"/>
<stop offset="1" stop-color="#B0B3BD"/>
</linearGradient>
<linearGradient id="paint10_linear_120_6384" x1="8.83771" y1="-5.6919" x2="326.974" y2="7.38959" gradientUnits="userSpaceOnUse">
<stop offset="0.021" stop-color="#212121"/>
<stop offset="0.166" stop-color="#5C5C5C"/>
<stop offset="0.348" stop-color="#757575"/>
<stop offset="0.742"/>
<stop offset="0.98" stop-color="#5C5C5C"/>
</linearGradient>
<linearGradient id="paint11_linear_120_6384" x1="289.483" y1="51.7759" x2="281.118" y2="24.2268" gradientUnits="userSpaceOnUse">
<stop stop-color="#F0F0F0"/>
<stop offset="1" stop-color="#636363"/>
</linearGradient>
<linearGradient id="paint12_linear_120_6384" x1="129.641" y1="-62.5352" x2="217.421" y2="98.613" gradientUnits="userSpaceOnUse">
<stop/>
<stop offset="0.613" stop-color="#1F1F1F"/>
<stop offset="1"/>
</linearGradient>
<linearGradient id="paint13_linear_120_6384" x1="67.8018" y1="-58.0191" x2="318.584" y2="106.516" gradientUnits="userSpaceOnUse">
<stop stop-color="#9E9E9E"/>
<stop offset="1"/>
</linearGradient>
<linearGradient id="paint14_linear_120_6384" x1="129.581" y1="-64.8472" x2="216.028" y2="93.8519" gradientUnits="userSpaceOnUse">
<stop/>
<stop offset="0.543" stop-color="white"/>
<stop offset="1" stop-color="#2E2E2E"/>
</linearGradient>
<linearGradient id="paint15_linear_120_6384" x1="77.233" y1="9.00871" x2="259.254" y2="10.4545" gradientUnits="userSpaceOnUse">
<stop offset="0.043" stop-color="#141414"/>
<stop offset="0.5"/>
<stop offset="1" stop-color="#0D0D0D"/>
</linearGradient>
<linearGradient id="paint16_linear_120_6384" x1="166.973" y1="4.0149" x2="165.774" y2="60.3109" gradientUnits="userSpaceOnUse">
<stop offset="0.029" stop-color="#212121"/>
<stop offset="0.339" stop-color="#CCCCCC"/>
<stop offset="0.57" stop-color="#5C5C5C"/>
<stop offset="0.89" stop-color="#CCCCCC"/>
<stop offset="1" stop-color="#828282"/>
</linearGradient>
<linearGradient id="paint17_linear_120_6384" x1="163.017" y1="24.1831" x2="162.312" y2="57.3031" gradientUnits="userSpaceOnUse">
<stop/>
<stop offset="0.613" stop-color="#1F1F1F"/>
<stop offset="1"/>
</linearGradient>
<linearGradient id="paint18_linear_120_6384" x1="65.4989" y1="-99.3461" x2="280.983" y2="132.219" gradientUnits="userSpaceOnUse">
<stop stop-color="#9E9E9E"/>
<stop offset="1"/>
</linearGradient>
<linearGradient id="paint19_linear_120_6384" x1="17.0888" y1="-217.819" x2="261.775" y2="170.548" gradientUnits="userSpaceOnUse">
<stop stop-color="white"/>
<stop offset="0.852"/>
</linearGradient>
<linearGradient id="paint20_linear_120_6384" x1="146.593" y1="53.1004" x2="176.537" y2="67.0634" gradientUnits="userSpaceOnUse">
<stop/>
<stop offset="0.613" stop-color="#434343"/>
<stop offset="1"/>
</linearGradient>
<linearGradient id="paint21_linear_120_6384" x1="147.153" y1="53.4625" x2="175.933" y2="66.8826" gradientUnits="userSpaceOnUse">
<stop stop-color="#ABABAB"/>
<stop offset="0.215" stop-color="#6F6F6F"/>
<stop offset="0.553" stop-color="#828282"/>
<stop offset="0.823" stop-color="#2E2E2E"/>
<stop offset="0.984" stop-color="#9F9CAB"/>
</linearGradient>
<linearGradient id="paint22_linear_120_6384" x1="147.549" y1="53.3246" x2="175.466" y2="66.343" gradientUnits="userSpaceOnUse">
<stop offset="0.113" stop-color="#97A1AB"/>
<stop offset="0.381" stop-color="white"/>
<stop offset="0.769" stop-color="#737373"/>
<stop offset="0.984" stop-color="#DCDADA"/>
</linearGradient>
<linearGradient id="paint23_linear_120_6384" x1="147.549" y1="53.3246" x2="175.466" y2="66.343" gradientUnits="userSpaceOnUse">
<stop offset="0.113" stop-color="#97A1AB"/>
<stop offset="0.381" stop-color="white"/>
<stop offset="0.769" stop-color="#737373"/>
<stop offset="0.984" stop-color="#DCDADA"/>
</linearGradient>
<linearGradient id="paint24_linear_120_6384" x1="128.31" y1="17.5384" x2="138.099" y2="37.6516" gradientUnits="userSpaceOnUse">
<stop stop-color="#42FFFF"/>
<stop offset="0.828" stop-color="#06CEF8"/>
</linearGradient>
<linearGradient id="paint25_linear_120_6384" x1="185.049" y1="20.4054" x2="190.383" y2="32.8152" gradientUnits="userSpaceOnUse">
<stop stop-color="#57FFFF"/>
<stop offset="0.828" stop-color="#25DEFF"/>
</linearGradient>
<linearGradient id="paint26_linear_120_6384" x1="184.432" y1="19.7974" x2="190.172" y2="33.1491" gradientUnits="userSpaceOnUse">
<stop stop-color="#25FFFF"/>
<stop offset="0.828" stop-color="#2597D1"/>
</linearGradient>
<linearGradient id="paint27_linear_120_6384" x1="189.927" y1="24.6563" x2="189.431" y2="27.0424" gradientUnits="userSpaceOnUse">
<stop stop-color="#25FFFF"/>
<stop offset="0.828" stop-color="#25DEFF"/>
</linearGradient>
<linearGradient id="paint28_linear_120_6384" x1="186.339" y1="27.0962" x2="185.804" y2="29.6712" gradientUnits="userSpaceOnUse">
<stop stop-color="#25E9FF"/>
<stop offset="0.828" stop-color="#2597D1"/>
</linearGradient>
<linearGradient id="paint29_linear_120_6384" x1="195.357" y1="30.1744" x2="192.712" y2="32.6635" gradientUnits="userSpaceOnUse">
<stop stop-color="#25E8FF"/>
<stop offset="0.828" stop-color="#25DEFF"/>
</linearGradient>
<linearGradient id="paint30_linear_120_6384" x1="188.753" y1="31.2814" x2="186.021" y2="33.851" gradientUnits="userSpaceOnUse">
<stop stop-color="#25FFFF"/>
<stop offset="0.828" stop-color="#2597D1"/>
</linearGradient>
<linearGradient id="paint31_linear_120_6384" x1="192.727" y1="36.4693" x2="188.936" y2="37.021" gradientUnits="userSpaceOnUse">
<stop stop-color="#25FFFF"/>
<stop offset="0.828" stop-color="#2597D1"/>
</linearGradient>
<linearGradient id="paint32_linear_120_6384" x1="185.257" y1="35.2425" x2="181.519" y2="35.7853" gradientUnits="userSpaceOnUse">
<stop stop-color="#57FFFF"/>
<stop offset="0.828" stop-color="#25DEFF"/>
</linearGradient>
<linearGradient id="paint33_linear_120_6384" x1="188.493" y1="31.1326" x2="185.499" y2="29.6213" gradientUnits="userSpaceOnUse">
<stop stop-color="#25FFFF"/>
<stop offset="0.828" stop-color="#2597D1"/>
</linearGradient>
<linearGradient id="paint34_linear_120_6384" x1="183.253" y1="28.3104" x2="180.691" y2="27.0225" gradientUnits="userSpaceOnUse">
<stop stop-color="#57FFFF"/>
<stop offset="0.828" stop-color="#25DEFF"/>
</linearGradient>
<linearGradient id="paint35_linear_120_6384" x1="203.399" y1="22.5182" x2="209.876" y2="28.9952" gradientUnits="userSpaceOnUse">
<stop stop-color="#57FFFF"/>
<stop offset="0.828" stop-color="#25DEFF"/>
</linearGradient>
<linearGradient id="paint36_linear_120_6384" x1="203.999" y1="24.4174" x2="205.491" y2="24.4174" gradientUnits="userSpaceOnUse">
<stop stop-color="#57FFFF"/>
<stop offset="0.828" stop-color="#25DEFF"/>
</linearGradient>
<linearGradient id="paint37_linear_120_6384" x1="156.753" y1="19.4194" x2="166.218" y2="37.2364" gradientUnits="userSpaceOnUse">
<stop stop-color="#42FFFF"/>
<stop offset="0.828" stop-color="#06CEF8"/>
</linearGradient>
<linearGradient id="paint38_linear_120_6384" x1="155.816" y1="19.5827" x2="165.655" y2="38.1047" gradientUnits="userSpaceOnUse">
<stop stop-color="#42FFFF"/>
<stop offset="0.828" stop-color="#06CEF8"/>
</linearGradient>
<linearGradient id="paint39_linear_120_6384" x1="155.371" y1="19.8245" x2="165.195" y2="38.3167" gradientUnits="userSpaceOnUse">
<stop stop-color="#42FFFF"/>
<stop offset="0.828" stop-color="#06CEF8"/>
</linearGradient>
</defs>
</svg>
