<svg width="301" height="143" viewBox="0 0 301 143" fill="none" xmlns="http://www.w3.org/2000/svg">
<g clip-path="url(#clip0_703_16)">
<path fill-rule="evenodd" clip-rule="evenodd" d="M32.3 86.2H16.8L10 104.4L0.0999756 92.6L17.9 48.4H31.3999L49.2 94.2H35L32.3 86.2ZM28.5 75.1L24.6001 63.6L20.6001 75.1H28.5ZM87 48.4L69.7 94.2H56.2L39 48.4H53.8L63.5 75.1L73.5 48.4H87ZM114.1 70H126V89.4C121.1 93.2 114.3 95.2 108.3 95.2C95.1 95.2 85.5 85.3 85.5 71.3C85.5 57.2 95.1001 47.4 108.6 47.4C116.6 47.4 123.1 50.5 127.2 56.2L118.4 64.9C115.9 61.6 112.9 59.9 109.3 59.9C103.2 59.9 99.3999 64.2 99.3999 71.3C99.3999 78.2 103.2 82.7 109.1 82.7C110.8 82.7 112.4 82.4 114.1 81.6V70ZM160.6 86.2H145.1L142.4 94.1H128.4L146.2 48.4H159.7L177.5 94.1H163.3L160.6 86.2ZM156.9 75.1L152.9 63.6L148.9 75.1H156.9ZM183.9 60.4H172V48.5H209.6V60.4H197.7V94.2H183.9V60.4ZM211.5 71.3C211.5 57.5 221.3 47.4 234.5 47.4C247.8 47.4 257.5 57.5 257.5 71.3C257.5 85.2 247.8 95.2 234.5 95.2C221.3 95.2 211.5 85.2 211.5 71.3ZM243.7 71.3C243.7 64.2 239.6 59.9 234.5 59.9C229.5 59.9 225.4 64.2 225.4 71.3C225.4 78.4 229.5 82.8 234.5 82.8C239.6 82.8 243.7 78.4 243.7 71.3ZM279.1 82.7H275.3V94.2H261.6V48.4H281.2C292.6 48.4 299.8 55.1 299.8 65.7C299.8 72.3 297 77.3 292.1 80.1L300.7 94.2L292.1 104.4L279.1 82.7ZM280.4 60.3H275.4V71H280.4C284.2 71 286 69 286 65.7C286 62.3 284.2 60.3 280.4 60.3V60.3Z" fill="#313D46"/>
<path d="M190.9 38.3L164.6 6.90002L172.3 0.5L190.9 22.6L209.5 0.5L217.2 6.90002L190.9 38.3ZM152.8 0.599976L179.1 32L171.4 38.4L152.8 16.3L134.2 38.4L126.5 32L152.8 0.599976ZM88.3 6.90002L96 0.5L114.6 22.6L133.2 0.5L140.9 6.90002L114.6 38.3L88.3 6.90002ZM217.2 135.7L209.5 142.1L190.9 120L172.3 142.1L164.6 135.7L190.9 104.3L217.2 135.7ZM126.5 110.7L134.2 104.3L152.8 126.4L171.4 104.3L179.1 110.7L152.8 142.1L126.5 110.7ZM114.6 104.3L140.9 135.7L133.2 142.1L114.6 120L96 142.1L88.3 135.7L114.6 104.3Z" fill="#868686"/>
</g>
<defs>
<clipPath id="clip0_703_16">
<rect width="301" height="143" fill="white"/>
</clipPath>
</defs>
</svg>
