<svg viewBox="0 0 301 57" fill="none" xmlns="http://www.w3.org/2000/svg" xmlns:xlink="http://www.w3.org/1999/xlink">

	<defs/>
	<path id="path" d="M32.2 38.8L16.7 38.8L9.9 57L0 45.2L17.79 1L31.29 1L49.1 46.8L34.9 46.8L32.2 38.8ZM28.4 27.7L24.5 16.2L20.5 27.7L28.4 27.7ZM86.9 1L69.6 46.8L56.1 46.8L38.9 1L53.7 1L63.4 27.7L73.4 1L86.9 1ZM114 22.6L125.9 22.6L125.9 42C121 45.8 114.2 47.8 108.2 47.8C95 47.8 85.4 37.9 85.4 23.9C85.4 9.8 95 0 108.5 0C116.5 0 123 3.1 127.1 8.8L118.3 17.5C115.8 14.2 112.8 12.5 109.2 12.5C103.1 12.5 99.29 16.79 99.29 23.9C99.29 30.8 103.1 35.3 109 35.3C110.7 35.3 112.3 35 114 34.2L114 22.6ZM160.5 38.8L145 38.8L142.3 46.7L128.3 46.7L146.1 1L159.6 1L177.4 46.7L163.2 46.7L160.5 38.8ZM156.8 27.7L152.8 16.2L148.8 27.7L156.8 27.7ZM183.8 13L171.9 13L171.9 1.1L209.5 1.1L209.5 13L197.6 13L197.6 46.8L183.8 46.8L183.8 13ZM211.4 23.9C211.4 10.1 221.2 0 234.4 0C247.7 0 257.4 10.1 257.4 23.9C257.4 37.8 247.7 47.8 234.4 47.8C221.2 47.8 211.4 37.8 211.4 23.9ZM243.6 23.9C243.6 16.79 239.5 12.5 234.4 12.5C229.4 12.5 225.3 16.79 225.3 23.9C225.3 31 229.4 35.4 234.4 35.4C239.5 35.4 243.6 31 243.6 23.9ZM279 35.3L275.2 35.3L275.2 46.8L261.5 46.8L261.5 1L281.1 1C292.5 1 299.7 7.7 299.7 18.29C299.7 24.9 296.9 29.9 292 32.7L300.6 46.8L292 57L279 35.3ZM280.29 12.9L275.29 12.9L275.29 23.6L280.29 23.6C284.1 23.6 285.9 21.6 285.9 18.29C285.9 14.9 284.1 12.9 280.29 12.9Z" fill="#313D46" fill-opacity="1.000000" fill-rule="evenodd"/>
</svg>
